<?xml version="1.0" encoding="utf-8"?>
<!-- Generator: Adobe Illustrator 16.0.0, SVG Export Plug-In . SVG Version: 6.00 Build 0)  -->
<!DOCTYPE svg PUBLIC "-//W3C//DTD SVG 1.1//EN" "http://www.w3.org/Graphics/SVG/1.1/DTD/svg11.dtd">
<svg version="1.1" id="Layer_1" xmlns="http://www.w3.org/2000/svg" xmlns:xlink="http://www.w3.org/1999/xlink" x="0px" y="0px"
	 width="317.542px" height="444.93px" viewBox="0 0 317.542 444.93" enable-background="new 0 0 317.542 444.93"
	 xml:space="preserve">
<g>
	<polygon fill="#B2B2B2" points="82.771,162.947 0,212.983 0,310.039 144.349,223.132 	"/>
	<path fill="#B2B2B2" d="M307.388,84.617c-6.079-15.658-15.148-29.328-27.187-41.018l-67.905,41.049
		c0.104,0.095,0.218,0.182,0.321,0.277c7.385,6.77,12.923,14.976,16.616,24.616c3.692,9.645,5.539,20.414,5.539,32.308
		c0,10.598-1.339,20.338-3.988,29.243l85.383-51.406C314.595,107.34,311.671,95.649,307.388,84.617z"/>
	<path fill="#CCCCCC" d="M230.785,171.091c-0.479,1.61-0.986,3.203-1.551,4.757c-3.692,10.154-9.231,18.77-16.616,25.847
		c-7.385,7.077-16.721,12.515-28,16.308c-11.284,3.798-24.515,5.692-39.692,5.692l-0.577-0.563L0,310.039V444.93h82.771V288.312
		h62.155c28.923,0,54.154-3.587,75.693-10.769c21.54-7.178,39.487-17.231,53.847-30.154c14.356-12.923,25.126-28.356,32.308-46.309
		c7.178-17.947,10.77-37.692,10.77-59.231c0-7.609-0.461-14.996-1.374-22.163L230.785,171.091z"/>
	<path fill="#3F3F3F" d="M82.771,64.001h62.155c15.178,0,28.409,1.798,39.692,5.385c11.121,3.541,20.344,8.632,27.679,15.262
		l67.905-41.049c-1.364-1.325-2.757-2.632-4.198-3.906c-14.154-12.51-32.105-22.255-53.847-29.231
		C200.412,3.491,174.666,0,144.925,0H0v212.983l82.771-50.036V64.001z"/>
</g>
</svg>
